<svg id="icon-youtube" viewBox="0 0 24 24" fill="none" xmlns="http://www.w3.org/2000/svg">
    <path fill="var(--yt-path1, currentColor)" fill-rule="evenodd" clip-rule="evenodd" d="M1.69538 7.8654L1.69512 7.86844C1.56504 9.41591 1.4989 10.7816 1.4989 11.9619C1.4989 13.1566 1.56665 14.5412 1.6999 16.112C1.86711 18.0833 3.45032 19.6363 5.42453 19.7654C7.81141 19.9215 10.0033 20 11.9989 20C13.9948 20 16.1874 19.9215 18.5756 19.7653C20.5505 19.6362 22.1341 18.0823 22.3005 16.1102C22.4321 14.5504 22.4989 13.1666 22.4989 11.9619C22.4989 10.7718 22.4337 9.40688 22.3052 7.87029C22.1383 5.87341 20.5195 4.30822 18.5182 4.20849C15.7395 4.07006 13.5636 4 11.9989 4C10.4343 4 8.25925 4.07 5.48192 4.20844C3.48232 4.30812 1.86455 5.87079 1.69538 7.8654ZM9.74307 9.00745C10.1833 8.35275 11.0709 8.17883 11.7257 8.61904L15.0243 10.8371C15.1811 10.9425 15.3153 11.078 15.4191 11.235C15.8541 11.8931 15.6734 12.7794 15.0151 13.2145L11.7164 15.3947C11.4826 15.5492 11.2085 15.6316 10.9285 15.6316C10.1396 15.6316 9.5 14.9919 9.5 14.203V9.80456C9.5 9.52049 9.58494 9.24281 9.74307 9.00745Z"/>
</svg>
