<svg width="24" height="24" viewBox="0 0 24 24" fill="none" xmlns="http://www.w3.org/2000/svg">
<path fill-rule="evenodd" clip-rule="evenodd" d="M2 7C2 4.23858 4.23858 2 7 2H17C19.7614 2 22 4.23858 22 7V17C22 19.7614 19.7614 22 17 22H7C4.23858 22 2 19.7614 2 17V7ZM17.5 7.5C18.0523 7.5 18.5 7.0523 18.5 6.5C18.5 5.9477 18.0523 5.5 17.5 5.5C16.9477 5.5 16.5 5.9477 16.5 6.5C16.5 7.0523 16.9477 7.5 17.5 7.5ZM12 7C9.23857 7 7 9.23857 7 12C7 14.7614 9.23857 17 12 17C14.7614 17 17 14.7614 17 12C17 9.23857 14.7614 7 12 7Z"/>
</svg>
