<svg width="60" height="60" viewBox="0 0 60 60" fill="none" xmlns="http://www.w3.org/2000/svg">
<path d="M5 0.5H55C57.4853 0.5 59.5 2.51472 59.5 5V55C59.5 57.4853 57.4853 59.5 55 59.5H5C2.51472 59.5 0.5 57.4853 0.5 55V5C0.5 2.51472 2.51472 0.5 5 0.5Z" stroke="white"/>
<path fill-rule="evenodd" clip-rule="evenodd" d="M30.5 10C30.2246 10 30 10.2239 30 10.5V29H10.5C10.2246 29 10 29.2239 10 29.5C10 29.6514 10.0684 29.787 10.1738 29.8787C10.2617 29.9542 10.375 30 10.5 30H30V49.5C30 49.7761 30.2246 50 30.5 50C30.6523 50 30.7891 49.9315 30.8809 49.8236C30.9551 49.7365 31 49.6234 31 49.5V30H49.5C49.7754 30 50 29.7761 50 29.5C50 29.2239 49.7754 29 49.5 29H31V10.5C31 10.2239 30.7754 10 30.5 10Z" fill="white"/>
</svg>
