<svg width="2796" height="1322" viewBox="0 0 2796 1322" fill="none" xmlns="http://www.w3.org/2000/svg">
<path d="M1596.22 17.177C1808.09 26.2437 2005.15 34.7771 2034.09 35.9771L2086.75 38.1104L2090.75 41.8438C2093.02 43.8438 2252.22 189.977 2444.75 366.51C2637.29 543.177 2795.02 687.844 2795.29 688.11C2795.55 688.244 2795.55 688.777 2795.15 689.177C2794.09 690.244 1892.22 697.577 1889.95 696.377C1888.89 695.844 1732.09 539.044 1541.55 347.977L1195.15 0.510254H1203.02C1207.42 0.510254 1384.22 7.977 1596.22 17.177ZM1188.49 39.5769C1204.22 57.8436 1216.75 72.9104 1216.49 73.0437C1216.35 73.3104 1187.55 93.977 1152.75 119.044C1093.15 162.11 1089.15 164.644 1084.75 164.11C1082.22 163.71 1053.29 161.177 1020.49 158.377C972.885 154.244 961.152 152.91 962.485 151.577C963.285 150.644 1007.29 116.644 1060.09 75.8438C1149.55 6.91041 1156.22 1.97699 1158.09 4.24365C1159.15 5.44365 1172.89 21.4436 1188.49 39.5769ZM882.752 185.444L1034.62 209.044L1302.75 450.377C1450.09 583.044 1571.02 691.844 1571.29 692.11C1571.55 692.244 1571.55 692.777 1571.29 693.044C1571.02 693.31 1513.42 694.244 1443.42 695.044C1373.42 695.844 1306.49 696.644 1294.75 696.91L1273.29 697.177L1013.42 441.977C870.352 301.577 747.685 181.044 740.752 174.244C733.819 167.444 728.752 161.844 729.419 161.844C730.219 161.844 799.152 172.377 882.752 185.444ZM706.752 197.977C718.485 211.177 728.219 222.377 728.485 223.044C728.752 223.71 590.352 329.444 421.152 457.977C251.952 586.51 111.285 693.177 108.752 695.177L104.085 698.777L54.0853 701.844C26.6186 703.444 2.48531 704.51 0.618648 704.244C-2.31469 703.977 53.152 660.51 339.952 438.91C528.485 293.177 683.419 173.977 684.085 173.977C684.885 173.977 695.019 184.777 706.752 197.977ZM1635.42 857.844V891.177H1546.75H1458.09V940.377V989.577L1511.15 990.244C1568.49 990.777 1571.95 991.177 1595.02 999.044C1612.89 1005.18 1625.15 1012.91 1639.55 1027.18C1654.22 1041.71 1661.42 1052.78 1667.95 1071.31C1679.29 1102.91 1679.69 1139.44 1669.02 1169.44C1663.42 1185.44 1654.62 1199.58 1642.89 1212.11C1625.02 1231.04 1604.09 1243.18 1575.55 1250.91L1562.75 1254.38L1474.49 1254.91L1386.09 1255.31V1039.98V824.51H1510.75H1635.42V857.844ZM385.285 1033.44L450.485 1192.51H468.885H487.419V1257.18V1321.84H454.085H420.752V1288.51V1255.18H290.085H159.419V1288.51V1321.84H126.085H92.752V1257.18V1192.51H111.285H129.819L133.819 1182.78C136.085 1177.58 164.619 1107.71 197.419 1027.84C230.219 947.844 257.819 880.51 258.885 878.11L260.619 873.844L290.352 874.11L320.085 874.51L385.285 1033.44ZM690.752 960.51C723.419 965.177 752.885 979.577 775.152 1001.71C820.885 1047.18 832.752 1120.38 803.685 1178.51C786.619 1212.91 757.419 1239.31 722.085 1252.38C692.619 1263.31 655.685 1264.51 624.885 1255.71C538.752 1230.64 494.485 1135.98 528.752 1050.24C547.552 1003.31 592.885 967.977 644.085 960.644C655.285 959.044 679.685 959.044 690.752 960.51ZM1903.42 961.177C1924.22 964.244 1941.02 970.644 1956.62 981.044C1960.49 983.71 1963.95 985.844 1964.22 985.844C1964.49 985.844 1964.75 981.311 1964.75 975.844V965.844H1996.75H2028.75V1110.51V1255.18H1996.75H1964.75V1243.84C1964.75 1237.58 1964.49 1232.51 1964.09 1232.51C1963.82 1232.51 1959.82 1235.18 1955.15 1238.38C1913.95 1267.04 1854.89 1269.71 1806.09 1245.04C1721.55 1202.64 1697.02 1092.51 1755.15 1016.11C1778.62 985.177 1814.09 965.577 1856.09 960.11C1865.95 958.777 1891.95 959.31 1903.42 961.177ZM993.285 1057.31C1013.82 1107.58 1031.02 1148.91 1031.42 1149.18C1031.82 1149.44 1049.15 1108.51 1069.69 1058.11L1107.15 966.51L1147.29 966.11L1187.42 965.844V1110.51V1255.18H1154.75H1122.09L1121.82 1177.44L1121.42 1099.84L1089.42 1177.58L1057.55 1255.18L1031.42 1254.91L1005.42 1254.51L974.085 1178.11L942.752 1101.71L942.352 1178.51L942.085 1255.18H908.752H875.419V1110.51V965.844H915.819L956.085 965.977L993.285 1057.31ZM2160.75 1020.51V1075.18H2218.09H2275.42V1020.51V965.844H2308.09H2340.75V1110.51V1255.18H2308.09H2275.42V1197.18V1139.18H2218.09H2160.75V1197.18V1255.18H2128.09H2095.42V1110.51V965.844H2128.09H2160.75V1020.51ZM2626.09 1110.51V1255.18H2592.75H2559.42L2559.15 1188.51L2558.75 1121.84L2510.89 1188.51L2462.89 1255.18H2423.02C2391.29 1255.18 2383.42 1254.78 2384.35 1253.44C2385.02 1252.64 2401.15 1231.44 2420.09 1206.51C2439.02 1181.58 2455.02 1160.51 2455.69 1159.71C2456.35 1158.78 2452.89 1156.38 2445.69 1152.78C2422.62 1141.31 2407.29 1123.18 2398.49 1097.18C2395.29 1087.58 2394.89 1084.64 2394.89 1066.51C2394.75 1047.44 2395.02 1045.98 2399.02 1034.78C2404.89 1018.38 2410.35 1009.58 2423.42 996.377C2433.15 986.511 2436.75 983.977 2448.75 977.977C2472.35 966.377 2474.75 966.111 2556.49 965.977L2626.09 965.844V1110.51Z" fill="black"/>
<path d="M1898.09 245.977L1898.22 299.844L1995.15 368.777L2092.09 437.844L2092.49 316.244C2092.62 249.444 2092.62 194.644 2092.49 194.377C2092.22 194.244 2048.49 193.577 1995.15 193.044L1898.09 192.11V245.977Z" fill="white"/>
<path d="M1458.09 1122.51V1188.78L1505.15 1188.11C1542.62 1187.71 1553.55 1187.18 1559.29 1185.44C1589.29 1176.64 1605.29 1154.78 1605.29 1122.51C1605.29 1090.11 1589.02 1068.38 1558.49 1059.71C1552.22 1057.84 1542.22 1057.31 1504.49 1056.91L1458.09 1056.24V1122.51Z" fill="white"/>
<path d="M246.085 1083.98C222.219 1142.38 202.619 1190.64 202.352 1191.31C202.085 1191.98 239.019 1192.51 290.085 1192.51C373.552 1192.51 378.352 1192.38 377.552 1190.11C371.419 1173.98 290.752 977.844 290.219 977.844C289.685 977.844 269.952 1025.58 246.085 1083.98Z" fill="white"/>
<path d="M653.152 1023.18C643.819 1024.91 629.419 1030.38 621.819 1035.31C611.819 1041.71 598.885 1056.38 593.552 1067.44C586.219 1082.24 584.219 1091.98 584.219 1110.51C584.219 1129.04 586.219 1138.64 593.685 1153.84C600.085 1167.04 616.085 1183.31 628.885 1189.44C663.285 1205.98 703.552 1199.71 728.885 1173.71C753.952 1147.98 760.219 1102.64 743.285 1067.98C730.085 1040.91 703.552 1023.98 672.219 1022.51C665.552 1022.24 657.019 1022.51 653.152 1023.18Z" fill="white"/>
<path d="M1863.15 1023.18C1830.49 1029.04 1804.89 1051.31 1794.62 1082.64C1791.15 1093.31 1790.75 1096.24 1790.75 1111.84C1790.75 1127.18 1791.29 1130.24 1794.35 1138.91C1799.29 1152.64 1805.29 1162.24 1815.55 1172.38C1832.62 1189.58 1852.89 1198.11 1876.75 1198.24C1893.29 1198.38 1903.69 1195.98 1917.69 1189.04C1949.42 1173.18 1967.95 1137.44 1963.42 1100.91C1958.89 1064.78 1937.42 1037.44 1905.02 1026.78C1892.75 1022.78 1874.22 1021.04 1863.15 1023.18Z" fill="white"/>
<path d="M2485.02 1031.31C2468.75 1036.51 2460.75 1048.78 2460.75 1068.38C2460.75 1085.44 2467.42 1095.71 2482.22 1101.44C2487.02 1103.31 2494.22 1103.71 2523.82 1104.24L2559.42 1104.78V1066.64V1028.51L2526.49 1028.64C2497.15 1028.64 2492.49 1028.91 2485.02 1031.31Z" fill="white"/>
</svg>
