<svg width="2796" height="1322" fill="none" xmlns="http://www.w3.org/2000/svg">
    <path fill-rule="evenodd" clip-rule="evenodd"
        d="M1893.71 29.956c-80.67-3.473-187.07-8.054-297.49-12.779-212-9.2-388.8-16.667-393.2-16.667h-7.87l346.4 347.467c190.54 191.067 347.34 347.867 348.4 348.4 2.27 1.2 904.14-6.133 905.2-7.2.4-.4.4-.933.14-1.067-.11-.107-25.88-23.751-69.25-63.535-64.05-58.758-166.48-152.723-281.29-258.065-98.44-90.261-188.17-172.576-252.66-231.74-61.64-56.549-100.23-91.949-101.34-92.926l-4-3.734-52.66-2.133c-13.86-.574-66.26-2.83-140.38-6.021zm4.38 216.021l.13 53.867 193.87 138 .4-121.6c.13-66.8.13-121.6 0-121.867-.27-.133-44-.8-97.34-1.333l-97.06-.934v53.867z"
        fill="#fff" />
    <path
        d="M1216.49 73.044c.26-.134-12.27-15.2-28-33.467a53801.09 53801.09 0 01-15.85-18.43c-8.11-9.431-13.88-16.142-14.55-16.903-1.87-2.267-8.54 2.666-98 71.6l-1.99 1.535c-51.91 40.115-94.825 73.277-95.615 74.198-1.333 1.333 10.4 2.667 58.005 6.8 32.8 2.8 61.73 5.333 64.26 5.733 4.4.534 8.4-2 68-45.066 9.28-6.681 18.12-13.049 26.12-18.802 22-15.832 37.52-27.003 37.62-27.198zm-181.87 136l-151.868-23.6c-83.6-13.067-152.533-23.6-153.333-23.6-.667 0 4.4 5.6 11.333 12.4 1.496 1.467 8.379 8.228 19.691 19.341 41.122 40.393 140.776 138.283 252.977 248.392l259.87 255.2 21.46-.267c11.74-.266 78.67-1.066 148.67-1.866 70-.8 127.6-1.734 127.87-2 .26-.267.26-.8 0-.934-.1-.101-17.71-15.95-47.62-42.867-48.61-43.748-129.7-116.733-220.92-198.866l-268.13-241.333zm-306.135 14c-.266-.667-10-11.867-21.733-25.067s-21.867-24-22.667-24c-.666 0-155.6 119.2-344.133 264.933C53.152 660.51-2.315 703.977.619 704.244c1.866.266 26-.8 53.466-2.4l50-3.067 4.667-3.6c1.14-.9 30.269-23.008 77.391-58.772 57.561-43.687 141.972-107.752 235.009-178.428 169.2-128.533 307.6-234.267 307.333-234.933z"
        fill="#fff" />
    <path fill-rule="evenodd" clip-rule="evenodd"
        d="M450.485 1192.51l-130.4-318-29.733-.4-29.733-.266-1.734 4.266c-.974 2.193-24.11 58.62-53.123 129.38l-8.343 20.35c-13.759 33.5-26.767 65.25-37.4 91.2-14.716 35.91-24.885 60.72-26.2 63.74l-4 9.73H92.752v129.33h66.667v-66.66h261.333v66.66h66.667v-129.33h-36.934zm-248.133-1.2c.267-.67 19.867-48.93 43.733-107.33 23.867-58.4 43.6-106.136 44.134-106.136.533 0 81.2 196.136 87.333 212.266.8 2.27-4 2.4-87.467 2.4-51.066 0-88-.53-87.733-1.2zm572.8-189.6c-22.267-22.133-51.733-36.533-84.4-41.2-11.067-1.466-35.467-1.466-46.667.134-51.2 7.333-96.533 42.666-115.333 89.596-34.267 85.74 10 180.4 96.133 205.47 30.8 8.8 67.734 7.6 97.2-3.33 35.334-13.07 64.534-39.47 81.6-73.87 29.067-58.13 17.2-131.33-28.533-176.8zm-122 21.47c-9.333 1.73-23.733 7.2-31.333 12.13-10 6.4-22.934 21.07-28.267 32.13-7.333 14.8-9.333 24.54-9.333 43.07s2 28.13 9.466 43.33c6.4 13.2 22.4 29.47 35.2 35.6 34.4 16.54 74.667 10.27 100-15.73 25.067-25.73 31.334-71.07 14.4-105.73-13.2-27.07-39.733-44-71.066-45.47-6.667-.27-15.2 0-19.067.67z"
        fill="#fff" />
    <path
        d="M1031.42 1149.18c-.4-.27-17.6-41.6-38.135-91.87l-37.2-91.333-40.266-.133h-40.4v289.336h66.666l.267-76.67.4-76.8 62.668 152.8 26 .4 26.13.27 63.87-155.34.4 77.6.27 77.74h65.33V965.844l-40.13.266-40.14.4-37.46 91.6c-20.54 50.4-37.87 91.33-38.27 91.07z"
        fill="#fff" />
    <path fill-rule="evenodd" clip-rule="evenodd"
        d="M1635.42 891.177V824.51h-249.33v430.8l88.4-.4 88.26-.53 12.8-3.47c28.54-7.73 49.47-19.87 67.34-38.8 11.73-12.53 20.53-26.67 26.13-42.67 10.67-30 10.27-66.53-1.07-98.13-6.53-18.53-13.73-29.6-28.4-44.13-14.4-14.27-26.66-22-44.53-28.136-23.07-7.867-26.53-8.267-83.87-8.8l-53.06-.667v-98.4h177.33zm-177.33 297.603l47.06-.67c37.47-.4 48.4-.93 54.14-2.67 30-8.8 46-30.66 46-62.93 0-32.4-16.27-54.13-46.8-62.8-6.27-1.87-16.27-2.4-54-2.8l-46.4-.67v132.54zm498.53-207.736c-15.6-10.4-32.4-16.8-53.2-19.867-11.47-1.867-37.47-2.4-47.33-1.067-42 5.467-77.47 25.067-100.94 56-58.13 76.4-33.6 186.53 50.94 228.93 48.8 24.67 107.86 22 149.06-6.66 4.67-3.2 8.67-5.87 8.94-5.87.4 0 .66 5.07.66 11.33v11.34h64V965.844h-64v10c0 5.467-.26 10-.53 10s-3.73-2.134-7.6-4.8zm-162 101.596c10.27-31.33 35.87-53.6 68.53-59.46 11.07-2.14 29.6-.4 41.87 3.6 32.4 10.66 53.87 38 58.4 74.13 4.53 36.53-14 72.27-45.73 88.13-14 6.94-24.4 9.34-40.94 9.2-23.86-.13-44.13-8.66-61.2-25.86-10.26-10.14-16.26-19.74-21.2-33.47-3.06-8.67-3.6-11.73-3.6-27.07 0-15.6.4-18.53 3.87-29.2z"
        fill="#fff" />
    <path d="M2160.75 1075.18V965.844h-65.33v289.336h65.33v-116h114.67v116h65.33V965.844h-65.33v109.336h-114.67z"
        fill="#fff" />
    <path fill-rule="evenodd" clip-rule="evenodd"
        d="M2626.09 1255.18V965.844l-69.6.133c-81.74.134-84.14.4-107.74 12-12 6-15.6 8.534-25.33 18.4-13.07 13.203-18.53 22.003-24.4 38.403-4 11.2-4.27 12.66-4.13 31.73 0 18.13.4 21.07 3.6 30.67 8.8 26 24.13 44.13 47.2 55.6 7.2 3.6 10.66 6 10 6.93-.67.8-16.67 21.87-35.6 46.8-18.94 24.93-35.07 46.13-35.74 46.93-.93 1.34 6.94 1.74 38.67 1.74h39.87l48-66.67 47.86-66.67.4 66.67.27 66.67h66.67zm-141.07-223.87c-16.27 5.2-24.27 17.47-24.27 37.07 0 17.06 6.67 27.33 21.47 33.06 4.8 1.87 12 2.27 41.6 2.8l35.6.54v-76.27l-32.93.13c-29.34 0-34 .27-41.47 2.67z"
        fill="#fff" />
</svg>